<?xml version="1.0" ?>
<svg xmlns="http://www.w3.org/2000/svg" version="1.1" width="853" height="1280" viewBox="0 0 512 512" preserveAspectRatio="none">
  <defs/>
  <g>
    <path d="M 504.5954895019531 0.007852517999708652 C 505.52349853515625 0.00299627217464149 511.36395263671875 0.0020831439178436995 510.44281005859375 0.0006171669811010361 C 457.372314453125 0.0013317310949787498 504.63232421875 3.4166299883509055e-05 500.24102783203125 0.000816426589153707 C 494.0075988769531 0.004228627774864435 474.8157653808594 0.009454209357500076 381.0700378417969 0.019927730783820152 C 464.32635498046875 0.0008684633066877723 387.39239501953125 0.04139867424964905 504.5954895019531 0.007852517999708652" stroke-width="0.0" fill="rgb(106, 149, 157)" opacity="1.0"/>
    <path d="M 471.5598449707031 507.03802490234375 C 505.4266052246094 513.9293823242188 472.2691955566406 514.296630859375 31.045696258544922 513.8822631835938 C 8.92646312713623 507.46612548828125 8.012113571166992 510.0001220703125 -1.6832362413406372 512.2649536132812 C -1.2384614944458008 369.93792724609375 0.8058420419692993 216.21212768554688 1.8698456287384033 342.9584655761719 C 126.8265380859375 260.6081237792969 139.01242065429688 189.9407501220703 471.5598449707031 507.03802490234375" stroke-width="0.0" fill="rgb(45, 48, 41)" opacity="1.0"/>
    <path d="M 219.0394744873047 453.9062805175781 C 493.3099365234375 387.98779296875 505.77374267578125 60.266666412353516 464.7694091796875 0.259799599647522 C 176.06817626953125 -2.1557669639587402 217.492431640625 -2.226125717163086 -2.8679563999176025 -2.193798780441284 C -1.046515941619873 77.32720947265625 -0.5080071091651917 239.3841094970703 -1.9302325248718262 423.193603515625 C 76.86958312988281 305.2165222167969 79.3818130493164 312.9713439941406 219.0394744873047 453.9062805175781" stroke-width="0.0" fill="rgb(94, 93, 58)" opacity="1.0"/>
    <path d="M 175.8113250732422 182.90121459960938 C 254.8506622314453 68.36123657226562 234.47666931152344 15.718962669372559 206.14784240722656 -0.35238078236579895 C 126.34605407714844 -1.7217199802398682 103.47737121582031 0.035617053508758545 7.364745140075684 2.7414345741271973 C 1.553123950958252 41.48384094238281 -1.41310453414917 46.651832580566406 -0.20218785107135773 95.12834167480469 C 64.18218994140625 124.11949920654297 43.28036880493164 166.61578369140625 175.8113250732422 182.90121459960938" stroke-width="0.0" fill="rgb(144, 144, 80)" opacity="1.0"/>
    <path d="M 513.9674072265625 27.63521385192871 C 513.7899780273438 278.397216796875 512.5205688476562 356.9883728027344 507.9722900390625 383.9207458496094 C 400.99334716796875 468.4678955078125 268.1690368652344 471.4743957519531 306.1679992675781 326.13421630859375 C 460.9031066894531 110.20816802978516 413.7117919921875 44.63406753540039 469.4800720214844 24.43730354309082 C 501.32421875 26.395177841186523 508.8692932128906 8.863014221191406 513.9674072265625 27.63521385192871" stroke-width="0.0" fill="rgb(75, 91, 62)" opacity="1.0"/>
    <path d="M 125.55155944824219 282.2818298339844 C 137.21153259277344 256.581787109375 100.80157470703125 254.29531860351562 85.89842224121094 206.7776336669922 C 56.71599197387695 147.8534393310547 49.108741760253906 129.36138916015625 3.4562532901763916 110.4023208618164 C -3.483109951019287 144.34088134765625 -3.4274911880493164 186.62020874023438 0.8634504079818726 273.4131774902344 C 48.34699630737305 304.79840087890625 38.22539138793945 289.89990234375 125.55155944824219 282.2818298339844" stroke-width="0.0" fill="rgb(62, 68, 26)" opacity="1.0"/>
    <path d="M 421.4128112792969 133.62698364257812 C 454.42181396484375 26.44938850402832 497.07562255859375 5.412613868713379 492.76171875 -2.0851786136627197 C 422.2017822265625 -2.219677448272705 349.9381103515625 -2.210068702697754 139.97813415527344 -2.8735511302948 C 190.5722198486328 20.695205688476562 175.68994140625 36.204002380371094 152.21951293945312 88.97624206542969 C 181.5037384033203 193.24058532714844 313.456787109375 165.36447143554688 421.4128112792969 133.62698364257812" stroke-width="0.0" fill="rgb(152, 201, 225)" opacity="1.0"/>
    <path d="M 282.3544921875 342.04107666015625 C 223.13873291015625 399.336669921875 117.9338607788086 443.9315490722656 69.70734405517578 471.449462890625 C 33.95472717285156 474.1228942871094 35.24275588989258 433.9071350097656 31.383031845092773 399.5112609863281 C 25.591115951538086 287.9620666503906 28.869298934936523 280.10260009765625 51.05088424682617 337.136962890625 C 100.23519897460938 332.58160400390625 119.53914642333984 308.4334716796875 282.3544921875 342.04107666015625" stroke-width="0.0" fill="rgb(43, 46, 43)" opacity="1.0"/>
    <path d="M 513.990478515625 121.89598846435547 C 510.57135009765625 491.40203857421875 514.3170166015625 512.8378295898438 511.6918029785156 506.85986328125 C 329.82781982421875 509.1004333496094 214.1132049560547 510.23974609375 293.9288635253906 423.7934265136719 C 433.23095703125 232.69044494628906 411.21942138671875 186.98403930664062 471.5871887207031 125.2528305053711 C 494.1291198730469 130.8216552734375 502.3937683105469 96.12020874023438 513.990478515625 121.89598846435547" stroke-width="0.0" fill="rgb(47, 54, 36)" opacity="1.0"/>
    <path d="M 231.5428009033203 186.337158203125 C 279.9140625 108.5668716430664 230.2360382080078 47.2283821105957 181.96920776367188 31.834041595458984 C 125.3572769165039 44.18605422973633 117.08687591552734 33.62145233154297 72.89474487304688 28.83380889892578 C 57.520118713378906 59.34001922607422 71.16490173339844 73.27080535888672 87.84051513671875 102.35215759277344 C 125.27619171142578 128.2079620361328 113.26371002197266 161.00062561035156 231.5428009033203 186.337158203125" stroke-width="0.0" fill="rgb(151, 181, 181)" opacity="1.0"/>
    <path d="M 172.6705780029297 127.25177001953125 C 110.52261352539062 56.99116516113281 150.36753845214844 42.0963134765625 263.71160888671875 48.959407806396484 C 374.330322265625 54.13056182861328 402.963134765625 37.676002502441406 452.1153259277344 69.37085723876953 C 451.5078125 163.6963348388672 410.7942810058594 192.38597106933594 341.0608215332031 224.21136474609375 C 286.1776123046875 163.32241821289062 314.2399597167969 135.82479858398438 172.6705780029297 127.25177001953125" stroke-width="0.0" fill="rgb(167, 210, 226)" opacity="1.0"/>
    <path d="M 475.759033203125 244.53916931152344 C 442.5890197753906 372.9866943359375 454.1464538574219 459.3245544433594 432.16754150390625 450.9949645996094 C 361.831298828125 426.6962585449219 363.8159484863281 376.947509765625 268.460205078125 343.2345886230469 C 277.78167724609375 290.54766845703125 375.7766418457031 285.6467590332031 416.8493957519531 238.25421142578125 C 437.6875 235.72804260253906 456.3782958984375 224.23948669433594 475.759033203125 244.53916931152344" stroke-width="0.0" fill="rgb(40, 50, 34)" opacity="1.0"/>
    <path d="M 230.84371948242188 302.7029724121094 C 254.61521911621094 281.8379821777344 233.1909637451172 248.92135620117188 206.9561309814453 238.00701904296875 C 168.5533905029297 251.57887268066406 158.27525329589844 254.06057739257812 119.13143157958984 247.3030548095703 C 95.6437759399414 254.417724609375 97.51703643798828 276.8740539550781 123.61454010009766 283.64324951171875 C 171.21107482910156 278.4740905761719 160.99302673339844 292.07373046875 230.84371948242188 302.7029724121094" stroke-width="0.0" fill="rgb(60, 65, 25)" opacity="1.0"/>
    <path d="M 514.4593505859375 378.4820861816406 C 513.5140991210938 500.47308349609375 511.16796875 513.18798828125 495.38232421875 504.1515197753906 C 387.1694030761719 487.26904296875 388.7249755859375 477.43817138671875 374.2684631347656 434.51458740234375 C 333.6840515136719 348.0352478027344 344.9364013671875 333.40728759765625 413.5719909667969 343.0119323730469 C 460.4718933105469 369.8222351074219 466.0439453125 383.18511962890625 514.4593505859375 378.4820861816406" stroke-width="0.0" fill="rgb(38, 35, 27)" opacity="1.0"/>
    <path d="M 514.1478271484375 -1.4352264404296875 C 514.278076171875 66.97774505615234 514.396240234375 80.56307220458984 505.1008605957031 72.99385833740234 C 489.95147705078125 42.7592658996582 491.9035949707031 54.48966979980469 459.767578125 54.03914260864258 C 436.4588928222656 0.42212140560150146 372.7322692871094 -1.9239723682403564 486.13751220703125 -2.1546683311462402 C 512.646484375 -2.0986533164978027 513.837646484375 -2.450564384460449 514.1478271484375 -1.4352264404296875" stroke-width="0.0" fill="rgb(151, 199, 222)" opacity="1.0"/>
    <path d="M 239.14410400390625 223.86231994628906 C 226.7763671875 159.97439575195312 231.0178985595703 167.39259338378906 241.5609130859375 110.41345977783203 C 219.71456909179688 60.74982833862305 168.89022827148438 73.49758911132812 83.11395263671875 73.59610748291016 C 81.98749542236328 113.98336029052734 121.15174865722656 129.73143005371094 147.89939880371094 152.82235717773438 C 189.0760040283203 187.16598510742188 195.55050659179688 201.05209350585938 239.14410400390625 223.86231994628906" stroke-width="0.0" fill="rgb(187, 211, 205)" opacity="1.0"/>
    <path d="M 470.5726013183594 218.63270568847656 C 461.5190124511719 211.6682586669922 434.51513671875 213.320068359375 421.2182312011719 231.7857208251953 C 414.337646484375 211.53517150878906 401.5984802246094 233.9224090576172 328.4530334472656 265.7236328125 C 343.3271179199219 225.1512451171875 402.0249938964844 190.5678253173828 415.94683837890625 171.32066345214844 C 426.6971740722656 209.055908203125 432.2710876464844 219.2700958251953 470.5726013183594 218.63270568847656" stroke-width="0.0" fill="rgb(108, 112, 69)" opacity="1.0"/>
    <path d="M 250.52130126953125 154.0972137451172 C 273.6763000488281 127.5732192993164 274.4063415527344 125.73856353759766 268.454833984375 108.8866958618164 C 235.62242126464844 86.6619873046875 224.4075469970703 54.26362609863281 131.2414093017578 47.53656768798828 C 84.43793487548828 92.93933868408203 123.22956085205078 133.82928466796875 172.2287139892578 167.84732055664062 C 214.80099487304688 203.5862274169922 204.06405639648438 185.76625061035156 250.52130126953125 154.0972137451172" stroke-width="0.0" fill="rgb(179, 213, 226)" opacity="1.0"/>
    <path d="M 251.13241577148438 242.5626983642578 C 290.4302062988281 232.95399475097656 261.7841796875 225.9615936279297 216.18479919433594 208.27919006347656 C 178.58905029296875 188.93112182617188 160.23948669433594 153.2212677001953 111.79771423339844 131.51739501953125 C 127.8129653930664 191.69334411621094 137.4808807373047 197.9895782470703 148.3950958251953 215.87078857421875 C 179.6042938232422 235.9970703125 179.58287048339844 237.81613159179688 251.13241577148438 242.5626983642578" stroke-width="0.0" fill="rgb(157, 146, 62)" opacity="1.0"/>
    <path d="M 331.1919860839844 252.5084228515625 C 380.26507568359375 227.09304809570312 382.1741638183594 184.9190216064453 348.060302734375 172.004150390625 C 296.2109069824219 181.04891967773438 294.0578308105469 139.36822509765625 271.033935546875 142.96987915039062 C 282.3484191894531 224.8778076171875 270.9373779296875 250.71585083007812 265.1784362792969 283.3180236816406 C 286.762451171875 282.86016845703125 277.5974426269531 271.7685546875 331.1919860839844 252.5084228515625" stroke-width="0.0" fill="rgb(210, 184, 147)" opacity="1.0"/>
    <path d="M 513.7249145507812 461.18011474609375 C 516.2562255859375 515.1893920898438 516.086669921875 515.9412231445312 508.7821044921875 513.5828857421875 C 334.4750061035156 509.453857421875 416.67413330078125 506.26611328125 415.265380859375 494.55029296875 C 346.4970397949219 420.0969543457031 354.3043518066406 353.0122985839844 411.955322265625 419.07220458984375 C 445.3976745605469 488.03369140625 471.1737060546875 456.14178466796875 513.7249145507812 461.18011474609375" stroke-width="0.0" fill="rgb(21, 26, 19)" opacity="1.0"/>
    <path d="M 430.3530578613281 308.18243408203125 C 406.1374816894531 371.3201904296875 372.8899841308594 413.08148193359375 358.8666687011719 390.99603271484375 C 320.7367248535156 366.7528381347656 313.5487976074219 405.59088134765625 276.3103942871094 351.4719543457031 C 254.54183959960938 284.7135925292969 286.42333984375 267.08465576171875 324.2723083496094 283.4076843261719 C 357.69342041015625 302.5383605957031 388.3022766113281 265.4596252441406 430.3530578613281 308.18243408203125" stroke-width="0.0" fill="rgb(37, 41, 34)" opacity="1.0"/>
    <path d="M 265.8551025390625 273.88970947265625 C 263.50079345703125 209.00428771972656 273.4512939453125 180.28379821777344 254.66061401367188 180.8463592529297 C 235.56695556640625 191.93748474121094 257.5355529785156 131.33702087402344 235.5955352783203 153.74948120117188 C 226.81942749023438 200.70509338378906 233.5976104736328 204.12469482421875 224.8317413330078 225.4642333984375 C 231.050048828125 251.62417602539062 240.18911743164062 261.5541076660156 265.8551025390625 273.88970947265625" stroke-width="0.0" fill="rgb(162, 140, 103)" opacity="1.0"/>
    <path d="M 385.1810607910156 222.9243621826172 C 365.15966796875 255.392822265625 359.7774658203125 264.3081970214844 346.0872497558594 283.8332214355469 C 325.2028503417969 280.9858093261719 336.43426513671875 259.4525451660156 324.86407470703125 261.6517028808594 C 308.8662109375 260.3459167480469 317.9037170410156 268.4475402832031 343.66082763671875 242.39212036132812 C 376.64898681640625 213.3991241455078 391.7751770019531 203.06048583984375 385.1810607910156 222.9243621826172" stroke-width="0.0" fill="rgb(137, 137, 80)" opacity="1.0"/>
    <path d="M 45.5787467956543 317.3733825683594 C 30.697280883789062 278.7279968261719 78.28426361083984 296.4417724609375 144.52210998535156 288.2728576660156 C 173.11209106445312 298.4544982910156 166.24098205566406 298.6064758300781 183.44949340820312 296.0568542480469 C 196.22398376464844 320.52142333984375 178.0230255126953 326.5056457519531 170.7183074951172 309.4129638671875 C 150.05667114257812 315.0478515625 157.34747314453125 325.5321044921875 45.5787467956543 317.3733825683594" stroke-width="0.0" fill="rgb(122, 108, 90)" opacity="1.0"/>
    <path d="M 433.36529541015625 113.20264434814453 C 424.45513916015625 170.06239318847656 408.6685791015625 196.685791015625 371.49383544921875 228.30111694335938 C 293.708740234375 288.9831848144531 285.844482421875 255.28939819335938 304.95782470703125 177.05076599121094 C 272.67095947265625 106.97889709472656 248.22531127929688 100.32276153564453 311.1161193847656 104.77388763427734 C 385.17340087890625 97.13890838623047 388.9682312011719 87.37257385253906 433.36529541015625 113.20264434814453" stroke-width="0.0" fill="rgb(182, 214, 223)" opacity="1.0"/>
    <path d="M 371.69573974609375 494.03167724609375 C 383.48974609375 511.17791748046875 440.5111999511719 513.3558349609375 314.5929260253906 514.0116577148438 C 164.514404296875 513.364501953125 227.6107177734375 511.8037414550781 234.9706573486328 503.0464782714844 C 241.04727172851562 477.0963134765625 277.2152404785156 494.9161071777344 268.4647521972656 500.44793701171875 C 344.6409606933594 399.8974304199219 348.90740966796875 403.0357666015625 371.69573974609375 494.03167724609375" stroke-width="0.0" fill="rgb(88, 110, 124)" opacity="1.0"/>
    <path d="M 357.3731994628906 420.2475891113281 C 352.4440002441406 452.6748046875 329.17071533203125 477.8611145019531 303.8506164550781 472.4632873535156 C 297.1494445800781 454.4447326660156 280.40472412109375 476.3865051269531 280.3717346191406 436.109619140625 C 272.67169189453125 361.0258483886719 257.1719055175781 329.007568359375 294.72857666015625 376.9635925292969 C 326.23699951171875 403.3447265625 337.2197570800781 382.57568359375 357.3731994628906 420.2475891113281" stroke-width="0.0" fill="rgb(155, 144, 131)" opacity="1.0"/>
    <path d="M 268.72015380859375 286.3803405761719 C 274.0027770996094 254.28993225097656 266.003173828125 246.80438232421875 267.55224609375 225.71414184570312 C 261.9029846191406 186.0337677001953 255.55404663085938 162.0615692138672 240.36888122558594 181.94204711914062 C 227.43130493164062 233.4250030517578 232.10765075683594 246.95130920410156 247.44692993164062 251.0931396484375 C 270.8097839355469 239.8748779296875 255.2161407470703 268.2088928222656 268.72015380859375 286.3803405761719" stroke-width="0.0" fill="rgb(193, 162, 115)" opacity="1.0"/>
    <path d="M 469.7289733886719 135.79959106445312 C 457.1057434082031 138.83273315429688 424.495361328125 149.45729064941406 422.5307922363281 172.74099731445312 C 417.94403076171875 186.61083984375 397.7889709472656 213.28756713867188 403.6927795410156 194.88137817382812 C 409.9178466796875 149.83277893066406 410.8030700683594 148.97706604003906 432.0068359375 121.1938705444336 C 450.3069763183594 101.12289428710938 448.6291809082031 120.23323059082031 469.7289733886719 135.79959106445312" stroke-width="0.0" fill="rgb(157, 169, 138)" opacity="1.0"/>
    <path d="M 287.76263427734375 313.068115234375 C 243.95945739746094 361.18695068359375 251.253662109375 402.22467041015625 233.40176391601562 414.5906677246094 C 189.0005645751953 414.0809631347656 128.5574188232422 421.2179870605469 88.68863677978516 368.1014099121094 C 159.84715270996094 322.2710266113281 198.7125701904297 314.4283447265625 237.75930786132812 288.30584716796875 C 272.0640869140625 290.130859375 299.28271484375 294.4322814941406 287.76263427734375 313.068115234375" stroke-width="0.0" fill="rgb(49, 54, 49)" opacity="1.0"/>
    <path d="M 261.5699462890625 396.5760498046875 C 236.11810302734375 452.4619445800781 192.02239990234375 496.45526123046875 179.94927978515625 484.17742919921875 C 241.29373168945312 319.5877380371094 199.18458557128906 426.9594421386719 83.71231079101562 430.87652587890625 C 74.63501739501953 346.97283935546875 146.73255920410156 345.8447265625 203.5165557861328 344.7356872558594 C 256.8879699707031 313.0938415527344 238.60948181152344 347.19842529296875 261.5699462890625 396.5760498046875" stroke-width="0.0" fill="rgb(39, 42, 33)" opacity="1.0"/>
    <path d="M 463.1812744140625 96.81547546386719 C 461.10064697265625 113.63872528076172 460.1775817871094 132.4623565673828 449.5954284667969 128.42359924316406 C 436.595947265625 118.97289276123047 432.7026672363281 120.09112548828125 444.5548095703125 97.73558044433594 C 445.3376770019531 61.97970962524414 441.67926025390625 39.28201675415039 450.6572265625 38.73490905761719 C 460.0502624511719 64.28411102294922 454.13092041015625 78.5042953491211 463.1812744140625 96.81547546386719" stroke-width="0.0" fill="rgb(107, 136, 132)" opacity="1.0"/>
    <path d="M 422.32086181640625 175.09820556640625 C 406.85943603515625 205.03146362304688 379.5563049316406 214.2992401123047 356.32763671875 242.3061065673828 C 326.677734375 258.4919128417969 300.5732421875 266.4805908203125 281.2687683105469 255.819091796875 C 295.66607666015625 188.20762634277344 289.8065490722656 162.29029846191406 328.7946472167969 154.72752380371094 C 382.4410095214844 146.28701782226562 393.758056640625 138.56324768066406 422.32086181640625 175.09820556640625" stroke-width="0.0" fill="rgb(198, 213, 213)" opacity="1.0"/>
    <path d="M 169.00013732910156 444.7301940917969 C 162.7535400390625 455.29571533203125 156.1826629638672 465.4883117675781 136.64962768554688 460.1327209472656 C 123.82719421386719 460.9801330566406 124.27898406982422 480.01177978515625 103.64566802978516 463.7565002441406 C 102.70021057128906 441.81219482421875 121.4219970703125 452.86724853515625 153.78627014160156 420.61090087890625 C 170.35853576660156 408.8602600097656 159.76766967773438 444.752197265625 169.00013732910156 444.7301940917969" stroke-width="0.0" fill="rgb(136, 112, 91)" opacity="1.0"/>
    <path d="M 116.24666595458984 129.82762145996094 C 116.30021667480469 130.11875915527344 115.96526336669922 130.19630432128906 116.271484375 129.8980712890625 C 116.21772766113281 130.17697143554688 116.10792541503906 23.840303421020508 116.24223327636719 130.11727905273438 C 116.2650375366211 62.035850524902344 116.1861343383789 129.83460998535156 116.28936767578125 130.16055297851562 C 116.21414184570312 130.07040405273438 116.22425842285156 129.87557983398438 116.24666595458984 129.82762145996094" stroke-width="0.0" fill="rgb(135, 33, 139)" opacity="1.0"/>
    <path d="M 116.19218444824219 130.0905303955078 C 116.38681030273438 129.88726806640625 116.08879852294922 130.06967163085938 116.38475036621094 130.0927276611328 C 116.3699722290039 130.4673309326172 116.21044158935547 130.00860595703125 116.31169128417969 130.0826416015625 C 116.13221740722656 130.1665802001953 117.67697143554688 130.17640686035156 116.23281860351562 130.08973693847656 C 87.23312377929688 130.40797424316406 116.15025329589844 130.06027221679688 116.19218444824219 130.0905303955078" stroke-width="0.0" fill="rgb(156, 123, 151)" opacity="1.0"/>
    <path d="M 29.82057762145996 124.23548126220703 C 151.766845703125 247.95680236816406 5.108855724334717 -3.4808168411254883 93.69318389892578 35.28739929199219 C 184.79994201660156 58.59339141845703 123.57073211669922 7.599225044250488 113.46175384521484 32.61444091796875 C 54.743194580078125 -2.3472626209259033 107.45547485351562 -1.043701171875 -3.3459970951080322 0.6877959370613098 C 1.9822125434875488 51.71675109863281 32.9727897644043 -2.597384452819824 29.82057762145996 124.23548126220703" stroke-width="0.0" fill="rgb(124, 124, 53)" opacity="1.0"/>
    <path d="M 6.020383358001709 86.33078002929688 C 54.684478759765625 11.985649108886719 32.30742645263672 41.2272834777832 55.05524826049805 72.29672241210938 C 139.4737548828125 85.18260192871094 54.15193557739258 63.3661994934082 132.07901000976562 164.8465576171875 C 23.285078048706055 117.19295501708984 108.00799560546875 139.82781982421875 41.98910903930664 140.84776306152344 C 52.91830825805664 61.96863555908203 13.694071769714355 124.93693542480469 6.020383358001709 86.33078002929688" stroke-width="0.0" fill="rgb(157, 152, 68)" opacity="1.0"/>
    <path d="M 78.28919982910156 38.7078742980957 C 175.6851043701172 -1.05133056640625 202.8231964111328 53.62820816040039 148.29202270507812 -2.322416067123413 C 141.29014587402344 14.892634391784668 139.47091674804688 22.64962387084961 71.11360168457031 41.090370178222656 C 52.543025970458984 7.7491302490234375 38.05243682861328 9.86298656463623 43.651344299316406 33.873939514160156 C 68.18975830078125 20.337404251098633 46.288818359375 113.96781921386719 78.28919982910156 38.7078742980957" stroke-width="0.0" fill="rgb(167, 167, 93)" opacity="1.0"/>
    <path d="M 89.80509185791016 120.6624526977539 C 83.65825653076172 103.75697326660156 78.40151977539062 63.51569747924805 93.5431137084961 94.54248046875 C 142.1243896484375 175.5016326904297 133.057861328125 101.28024291992188 163.04283142089844 176.88653564453125 C 122.94093322753906 200.96719360351562 176.19876098632812 175.5290069580078 124.00616455078125 145.74835205078125 C 115.01788330078125 143.55963134765625 140.87892150878906 199.90647888183594 89.80509185791016 120.6624526977539" stroke-width="0.0" fill="rgb(176, 175, 98)" opacity="1.0"/>
    <path d="M 134.9244842529297 205.68809509277344 C 194.6437225341797 184.46572875976562 149.3145294189453 228.46954345703125 195.63772583007812 214.38482666015625 C 216.6634521484375 217.20706176757812 212.54241943359375 240.11634826660156 155.58355712890625 223.91900634765625 C 107.02680206298828 182.62738037109375 144.50900268554688 192.8254852294922 105.73681640625 175.2821044921875 C 139.82559204101562 160.62564086914062 134.85684204101562 138.23236083984375 134.9244842529297 205.68809509277344" stroke-width="0.0" fill="rgb(111, 110, 32)" opacity="1.0"/>
    <path d="M 58.72430419921875 77.18229675292969 C 76.164306640625 17.36539077758789 52.64519500732422 79.6091079711914 22.24126625061035 50.62374496459961 C 18.762109756469727 91.53285217285156 3.2764580249786377 53.802249908447266 -1.8641295433044434 85.888916015625 C 24.297286987304688 96.73107147216797 13.476723670959473 18.290742874145508 61.34394836425781 68.56794738769531 C 44.5787239074707 109.15935516357422 117.82750701904297 87.70799255371094 58.72430419921875 77.18229675292969" stroke-width="0.0" fill="rgb(155, 169, 131)" opacity="1.0"/>
    <path d="M 185.87271118164062 109.63238525390625 C 185.9869384765625 109.72293090820312 185.8299560546875 109.93634033203125 185.80224609375 109.56713104248047 C 185.7510986328125 109.64531707763672 185.88436889648438 106.91448211669922 185.76364135742188 110.00792694091797 C 185.78814697265625 102.81333923339844 185.7366180419922 109.94707489013672 185.8079833984375 109.72625732421875 C 185.74734497070312 109.9474105834961 185.8529510498047 109.56842041015625 185.87271118164062 109.63238525390625" stroke-width="0.0" fill="rgb(135, 80, 200)" opacity="1.0"/>
    <path d="M 185.87493896484375 109.62053680419922 C 186.02200317382812 109.75730895996094 185.7684326171875 109.62506103515625 186.05516052246094 109.66610717773438 C 185.91943359375 109.75604248046875 186.15020751953125 109.76742553710938 185.92526245117188 109.66998291015625 C 185.6547088623047 109.6904296875 183.81593322753906 109.14186096191406 185.95370483398438 109.6461181640625 C 148.71920776367188 109.8685302734375 185.57244873046875 109.66250610351562 185.87493896484375 109.62053680419922" stroke-width="0.0" fill="rgb(200, 160, 202)" opacity="1.0"/>
    <path d="M 93.41586303710938 110.71166229248047 C 216.31773376464844 167.95782470703125 240.32777404785156 139.4988250732422 267.3749084472656 131.03248596191406 C 273.81744384765625 73.3498306274414 252.18963623046875 122.13116455078125 176.4790802001953 38.407936096191406 C 95.05558013916016 61.362091064453125 126.8275146484375 9.282231330871582 89.87850952148438 50.90180969238281 C 92.78913116455078 99.70497131347656 104.15925598144531 102.77952575683594 93.41586303710938 110.71166229248047" stroke-width="0.0" fill="rgb(145, 173, 180)" opacity="1.0"/>
    <path d="M 136.94664001464844 60.507774353027344 C 182.49609375 54.92949295043945 103.88273620605469 41.683006286621094 190.35650634765625 34.843666076660156 C 288.4456481933594 56.2659912109375 296.4453125 65.88128662109375 273.8631591796875 103.63835906982422 C 251.36080932617188 96.77651977539062 296.47357177734375 174.75587463378906 138.82823181152344 135.25421142578125 C 80.04920959472656 96.6295394897461 125.0250015258789 140.8285369873047 136.94664001464844 60.507774353027344" stroke-width="0.0" fill="rgb(166, 209, 228)" opacity="1.0"/>
    <path d="M 123.40006256103516 119.53787231445312 C 286.58245849609375 153.7174530029297 296.8712463378906 85.35745239257812 187.7602081298828 79.87407684326172 C 88.80388641357422 43.60734558105469 152.20843505859375 60.0435676574707 114.3026351928711 72.78913116455078 C 96.95606231689453 77.48558044433594 84.67680358886719 76.60699462890625 95.61245727539062 102.85143280029297 C 122.11381530761719 87.61441802978516 113.05731964111328 96.31834411621094 123.40006256103516 119.53787231445312" stroke-width="0.0" fill="rgb(175, 214, 228)" opacity="1.0"/>
    <path d="M 119.6291732788086 138.77903747558594 C 106.82225036621094 103.47416687011719 94.0143814086914 110.42159271240234 131.33297729492188 107.13523864746094 C 247.57749938964844 141.7907257080078 274.54962158203125 92.28334045410156 262.18115234375 126.54199981689453 C 239.96206665039062 201.8037872314453 244.6021270751953 108.83848571777344 224.4667510986328 174.59152221679688 C 108.62824249267578 198.59539794921875 199.98143005371094 133.14068603515625 119.6291732788086 138.77903747558594" stroke-width="0.0" fill="rgb(187, 218, 226)" opacity="1.0"/>
    <path d="M 91.63811492919922 38.87059783935547 C 137.36459350585938 49.40092086791992 113.20709228515625 71.03646087646484 144.55323791503906 48.64370346069336 C 171.86648559570312 73.46294403076172 115.22208404541016 44.03915786743164 121.94036865234375 69.54002380371094 C 67.39962768554688 79.2997055053711 118.4648666381836 64.03849029541016 74.38959503173828 60.465240478515625 C 103.70099639892578 46.905033111572266 137.24383544921875 89.81436920166016 91.63811492919922 38.87059783935547" stroke-width="0.0" fill="rgb(100, 123, 128)" opacity="1.0"/>
    <path d="M 132.05203247070312 51.178627014160156 C 93.8116683959961 32.976593017578125 132.737548828125 65.5674819946289 104.19381713867188 53.801937103271484 C 82.96371459960938 12.380439758300781 68.51016998291016 31.398527145385742 69.18247985839844 57.526710510253906 C 103.18070983886719 53.88937759399414 92.7448501586914 63.06919860839844 113.20631408691406 56.499061584472656 C 122.42465209960938 68.84385681152344 140.81671142578125 70.2488021850586 132.05203247070312 51.178627014160156" stroke-width="0.0" fill="rgb(161, 206, 224)" opacity="1.0"/>
    <path d="M 345.09967041015625 153.30154418945312 C 344.8709411621094 153.28805541992188 344.60235595703125 153.5033721923828 344.824462890625 153.3076934814453 C 344.94390869140625 153.34141540527344 345.14630126953125 186.14205932617188 344.841064453125 153.29855346679688 C 344.9239501953125 165.92434692382812 344.8564453125 153.1387481689453 344.855712890625 153.250732421875 C 344.8779602050781 153.70733642578125 344.81939697265625 153.34327697753906 345.09967041015625 153.30154418945312" stroke-width="0.0" fill="rgb(136, 201, 169)" opacity="1.0"/>
    <path d="M 344.8056640625 153.3234100341797 C 345.43988037109375 153.66160583496094 345.3709716796875 153.20999145507812 344.8504943847656 153.24964904785156 C 344.92535400390625 153.39639282226562 345.06866455078125 153.455810546875 344.88006591796875 153.3639373779297 C 344.87860107421875 154.0810089111328 345.0574951171875 153.33544921875 345.11181640625 153.28945922851562 C 432.6593933105469 153.49072265625 344.9883117675781 153.2495880126953 344.8056640625 153.3234100341797" stroke-width="0.0" fill="rgb(199, 138, 203)" opacity="1.0"/>
    <path d="M 288.6531677246094 271.313720703125 C 391.33123779296875 227.64549255371094 361.85638427734375 256.0050964355469 417.23199462890625 190.39068603515625 C 430.501708984375 186.18264770507812 425.4263916015625 133.41275024414062 424.5390930175781 144.25228881835938 C 255.17567443847656 236.55111694335938 280.1911926269531 84.43912506103516 258.1459655761719 139.16629028320312 C 240.6136932373047 188.7388916015625 286.7283935546875 118.62955474853516 288.6531677246094 271.313720703125" stroke-width="0.0" fill="rgb(165, 159, 126)" opacity="1.0"/>
    <path d="M 275.8403015136719 241.94322204589844 C 272.63671875 165.9485321044922 289.9049987792969 204.25466918945312 298.8761291503906 169.39271545410156 C 333.2974548339844 214.3097686767578 356.8821105957031 210.99710083007812 335.3640441894531 260.2020568847656 C 314.37176513671875 270.7575988769531 308.4222717285156 248.9380340576172 285.6636047363281 277.2784423828125 C 254.71868896484375 261.3675231933594 284.1639709472656 266.27508544921875 275.8403015136719 241.94322204589844" stroke-width="0.0" fill="rgb(215, 205, 158)" opacity="1.0"/>
    <path d="M 403.440185546875 186.19715881347656 C 401.9920654296875 197.92559814453125 440.0194091796875 199.91314697265625 421.9876403808594 177.66323852539062 C 393.2970886230469 202.62200927734375 421.4383850097656 170.70822143554688 410.965087890625 133.0655517578125 C 301.91387939453125 114.95249938964844 258.9369812011719 128.32188415527344 326.28387451171875 224.44459533691406 C 399.1982421875 215.867431640625 401.1302795410156 198.80747985839844 403.440185546875 186.19715881347656" stroke-width="0.0" fill="rgb(185, 214, 219)" opacity="1.0"/>
    <path d="M 297.9765625 258.5085144042969 C 293.93170166015625 178.55250549316406 298.3000793457031 159.75033569335938 314.0656433105469 177.08995056152344 C 368.244140625 198.33786010742188 338.3388977050781 172.07168579101562 404.9828796386719 188.58795166015625 C 386.1880798339844 209.25840759277344 383.10009765625 225.41372680664062 375.19635009765625 226.31356811523438 C 351.7723693847656 222.0861358642578 367.6713562011719 259.3688659667969 297.9765625 258.5085144042969" stroke-width="0.0" fill="rgb(200, 216, 216)" opacity="1.0"/>
    <path d="M 244.3404083251953 176.2880401611328 C 256.64752197265625 123.7441635131836 259.29949951171875 157.5719451904297 276.3068542480469 148.7412567138672 C 282.3678894042969 193.3837432861328 271.6431579589844 183.60682678222656 266.01202392578125 177.57241821289062 C 243.79403686523438 178.73509216308594 260.0264587402344 216.82289123535156 248.88494873046875 228.14781188964844 C 244.6365203857422 182.98463439941406 247.94651794433594 169.98265075683594 244.3404083251953 176.2880401611328" stroke-width="0.0" fill="rgb(113, 103, 71)" opacity="1.0"/>
    <path d="M 447.1884765625 119.97325134277344 C 443.1388244628906 100.74394989013672 440.25738525390625 112.19735717773438 418.7296447753906 110.37284851074219 C 268.10345458984375 120.0739517211914 297.99505615234375 123.19351959228516 399.8052062988281 188.66880798339844 C 418.66766357421875 173.2770233154297 387.51690673828125 138.14865112304688 428.83721923828125 141.4389190673828 C 476.4570617675781 134.73452758789062 457.33416748046875 135.6925506591797 447.1884765625 119.97325134277344" stroke-width="0.0" fill="rgb(183, 215, 224)" opacity="1.0"/>
    <path d="M 406.6777038574219 180.06057739257812 C 402.09033203125 179.70999145507812 401.3321533203125 178.94808959960938 402.96539306640625 180.0669403076172 C 402.7060241699219 181.81349182128906 402.0110778808594 106.65455627441406 403.0052490234375 181.61944580078125 C 404.3250427246094 166.24900817871094 402.7939453125 179.42369079589844 402.76312255859375 179.69497680664062 C 406.32769775390625 179.25233459472656 406.97308349609375 182.59463500976562 406.6777038574219 180.06057739257812" stroke-width="0.0" fill="rgb(137, 96, 80)" opacity="1.0"/>
    <path d="M 401.10015869140625 179.32464599609375 C 401.5348815917969 180.04637145996094 401.55523681640625 179.2967529296875 401.45330810546875 179.94923400878906 C 402.8389587402344 180.80087280273438 402.0953063964844 180.6661376953125 403.69769287109375 178.81674194335938 C 402.339599609375 180.2998504638672 401.8947448730469 179.05349731445312 403.0289306640625 179.5723114013672 C 372.3236999511719 179.95701599121094 404.8655090332031 179.06793212890625 401.10015869140625 179.32464599609375" stroke-width="0.0" fill="rgb(87, 62, 87)" opacity="1.0"/>
    <path d="M 408.0938720703125 242.3401641845703 C 513.56005859375 120.565185546875 464.5329895019531 135.00119018554688 515.0338134765625 118.9263916015625 C 508.68572998046875 57.785377502441406 507.2026062011719 92.6677017211914 454.3546142578125 44.50102996826172 C 448.81317138671875 41.273563385009766 448.49737548828125 74.59195709228516 460.2853088378906 130.70201110839844 C 408.487060546875 241.51974487304688 368.5779113769531 221.80514526367188 408.0938720703125 242.3401641845703" stroke-width="0.0" fill="rgb(62, 74, 47)" opacity="1.0"/>
    <path d="M 427.9504699707031 191.5679473876953 C 412.15631103515625 150.1014862060547 429.179931640625 160.0000457763672 473.51708984375 123.2488784790039 C 418.2079162597656 210.44863891601562 458.11871337890625 109.29719543457031 462.6458435058594 185.3146209716797 C 414.70477294921875 218.67132568359375 476.5644226074219 87.44451141357422 426.76953125 192.9725341796875 C 378.3437805175781 257.8374328613281 362.8865661621094 219.32546997070312 427.9504699707031 191.5679473876953" stroke-width="0.0" fill="rgb(90, 97, 61)" opacity="1.0"/>
    <path d="M 466.83660888671875 104.51885223388672 C 504.147216796875 113.1649169921875 504.3250732421875 117.02604675292969 490.97637939453125 90.71500396728516 C 463.93243408203125 70.1314697265625 491.4742126464844 137.72329711914062 467.832763671875 88.59272766113281 C 457.3475341796875 106.59040069580078 438.86181640625 53.29253005981445 460.1921691894531 135.2093963623047 C 484.0786437988281 121.58148193359375 428.01220703125 111.76517486572266 466.83660888671875 104.51885223388672" stroke-width="0.0" fill="rgb(84, 97, 94)" opacity="1.0"/>
    <path d="M 404.4734802246094 210.51380920410156 C 386.0041809082031 215.50599670410156 416.0454406738281 202.4556427001953 417.4288635253906 206.32766723632812 C 439.13323974609375 216.53750610351562 440.93017578125 201.11122131347656 454.8480224609375 209.99925231933594 C 459.146240234375 226.05006408691406 460.74334716796875 220.9269256591797 427.89764404296875 223.92105102539062 C 411.1787414550781 245.38739013671875 408.7164611816406 218.30601501464844 404.4734802246094 210.51380920410156" stroke-width="0.0" fill="rgb(110, 109, 40)" opacity="1.0"/>
    <path d="M 333.4281311035156 287.76171875 C 390.6290588378906 266.2250671386719 387.43621826171875 214.2018585205078 407.119384765625 224.4727020263672 C 419.1702575683594 236.4235076904297 404.436767578125 251.67141723632812 350.0154724121094 293.036865234375 C 306.3250732421875 296.584716796875 346.9381408691406 291.7115478515625 283.4895935058594 280.21612548828125 C 326.5324401855469 249.42843627929688 315.9849548339844 279.8667297363281 333.4281311035156 287.76171875" stroke-width="0.0" fill="rgb(56, 67, 31)" opacity="1.0"/>
    <path d="M 500.4917297363281 65.44962310791016 C 480.6133117675781 52.57965087890625 442.9964294433594 51.97816848754883 479.9239501953125 65.72709655761719 C 486.9635925292969 80.0046157836914 465.15283203125 61.814109802246094 459.1899719238281 70.81916046142578 C 484.44140625 89.21305084228516 478.0166320800781 52.16234588623047 493.2654724121094 70.48410034179688 C 456.2599182128906 96.22598266601562 516.62451171875 74.19506072998047 500.4917297363281 65.44962310791016" stroke-width="0.0" fill="rgb(101, 125, 133)" opacity="1.0"/>
    <path d="M 148.92144775390625 226.95912170410156 C 150.6033935546875 224.2461395263672 150.2977294921875 224.37783813476562 150.22659301757812 224.23089599609375 C 150.18711853027344 225.02928161621094 150.04464721679688 246.53700256347656 150.32997131347656 223.15335083007812 C 150.9968719482422 231.90121459960938 150.28785705566406 222.8326416015625 150.06129455566406 225.65769958496094 C 148.67201232910156 225.8733367919922 148.17324829101562 225.97271728515625 148.92144775390625 226.95912170410156" stroke-width="0.0" fill="rgb(135, 151, 85)" opacity="1.0"/>
    <path d="M 149.5792999267578 224.6116180419922 C 151.12570190429688 225.19720458984375 150.7798614501953 225.02874755859375 152.15013122558594 224.5301513671875 C 153.04563903808594 224.64430236816406 150.83798217773438 225.07028198242188 150.74343872070312 224.75718688964844 C 149.94078063964844 225.35513305664062 151.03042602539062 226.59095764160156 149.74505615234375 225.174072265625 C 249.20916748046875 224.3224334716797 147.02865600585938 224.60214233398438 149.5792999267578 224.6116180419922" stroke-width="0.0" fill="rgb(106, 72, 100)" opacity="1.0"/>
    <path d="M 149.16802978515625 261.2425231933594 C 116.99242401123047 313.6762390136719 125.19273376464844 300.5811462402344 168.18797302246094 308.60723876953125 C 189.9355926513672 293.29498291015625 120.00858306884766 223.4468231201172 153.02987670898438 216.7383270263672 C 111.93265533447266 153.61256408691406 74.42296600341797 160.26275634765625 76.7690200805664 201.49496459960938 C 123.85261535644531 247.172119140625 65.78900909423828 266.2091979980469 149.16802978515625 261.2425231933594" stroke-width="0.0" fill="rgb(82, 83, 30)" opacity="1.0"/>
    <path d="M 123.97439575195312 278.65130615234375 C 150.66041564941406 289.9057312011719 134.3237762451172 304.3531188964844 154.07757568359375 287.7820129394531 C 163.18795776367188 269.37518310546875 164.3067626953125 279.4239196777344 160.3067626953125 318.2161560058594 C 138.73228454589844 326.8276672363281 154.5404510498047 302.6543273925781 132.88674926757812 282.4852294921875 C 133.65484619140625 316.73687744140625 109.21401977539062 292.9595947265625 123.97439575195312 278.65130615234375" stroke-width="0.0" fill="rgb(162, 140, 112)" opacity="1.0"/>
    <path d="M 103.9182357788086 199.0819549560547 C 92.65827178955078 221.88229370117188 142.47705078125 226.71192932128906 110.69973754882812 205.3935089111328 C 113.57235717773438 165.89151000976562 68.19412994384766 184.35223388671875 48.13774871826172 187.35977172851562 C 10.488970756530762 182.3316192626953 57.320892333984375 162.23570251464844 9.823443412780762 159.9647674560547 C 35.700714111328125 213.69985961914062 71.05399322509766 173.3181610107422 103.9182357788086 199.0819549560547" stroke-width="0.0" fill="rgb(121, 114, 44)" opacity="1.0"/>
    <path d="M 52.8498420715332 318.9056701660156 C 32.87547302246094 284.48504638671875 34.66127395629883 300.07867431640625 104.42825317382812 306.0567321777344 C 110.69278717041016 321.69085693359375 100.97188568115234 275.89996337890625 109.90621185302734 286.5900573730469 C 113.23625946044922 292.9444885253906 114.84913635253906 296.9115905761719 109.5071029663086 315.08831787109375 C 26.53142547607422 292.869140625 72.64088439941406 294.3036193847656 52.8498420715332 318.9056701660156" stroke-width="0.0" fill="rgb(197, 166, 132)" opacity="1.0"/>
    <path d="M -2.102910041809082 175.59475708007812 C 80.94515991210938 249.3885955810547 36.59476852416992 255.63621520996094 93.31623840332031 237.12750244140625 C 130.7859344482422 324.7986145019531 77.00389862060547 256.2061767578125 71.11402893066406 293.79547119140625 C 14.427177429199219 313.361572265625 100.23758697509766 255.37875366210938 34.15808868408203 280.96051025390625 C 2.0226523876190186 171.9196014404297 -1.063690423965454 234.17138671875 -2.102910041809082 175.59475708007812" stroke-width="0.0" fill="rgb(43, 49, 18)" opacity="1.0"/>
    <path d="M 50.64638900756836 272.5283508300781 C 51.78504180908203 284.183837890625 62.40769577026367 285.9097900390625 16.655994415283203 282.443603515625 C 0.11179317533969879 278.212158203125 -1.7270865440368652 269.097412109375 -2.329310894012451 287.9288024902344 C 14.538710594177246 283.95391845703125 2.4489965438842773 278.8298645019531 48.63521194458008 285.36962890625 C 46.84876251220703 290.08123779296875 69.30923461914062 275.0052795410156 50.64638900756836 272.5283508300781" stroke-width="0.0" fill="rgb(180, 153, 125)" opacity="1.0"/>
    <path d="M 375.1784973144531 385.90045166015625 C 374.6527099609375 388.2608947753906 374.028564453125 388.2403869628906 374.9247131347656 386.4074401855469 C 375.18890380859375 387.01531982421875 374.7353515625 372.5792541503906 374.73486328125 390.6920471191406 C 375.5955810546875 323.3526611328125 374.988037109375 389.04913330078125 374.8651428222656 389.11273193359375 C 374.9051818847656 386.5721435546875 374.6457214355469 387.0577697753906 375.1784973144531 385.90045166015625" stroke-width="0.0" fill="rgb(133, 58, 73)" opacity="1.0"/>
    <path d="M 376.4254455566406 387.9397888183594 C 375.8092041015625 390.0929260253906 375.49102783203125 389.53533935546875 376.832763671875 387.7440185546875 C 377.14404296875 387.876708984375 376.7901916503906 388.2698059082031 376.4274597167969 388.0370178222656 C 373.74066162109375 387.9311828613281 374.22674560546875 386.4952087402344 374.5833740234375 387.8872985839844 C 466.07745361328125 389.602783203125 373.9795227050781 387.9345397949219 376.4254455566406 387.9397888183594" stroke-width="0.0" fill="rgb(123, 47, 108)" opacity="1.0"/>
    <path d="M 452.16107177734375 327.9776611328125 C 474.9404296875 316.12445068359375 434.0265808105469 391.66387939453125 466.4089050292969 359.6358947753906 C 468.62591552734375 308.7270202636719 443.9756164550781 409.1264953613281 464.61651611328125 299.8128967285156 C 464.03033447265625 276.47314453125 429.8148498535156 298.9504699707031 435.75958251953125 315.3214111328125 C 435.380126953125 321.1451416015625 430.21685791015625 324.10833740234375 452.16107177734375 327.9776611328125" stroke-width="0.0" fill="rgb(73, 75, 78)" opacity="1.0"/>
    <path d="M 360.1586608886719 416.2019348144531 C 373.63531494140625 456.33477783203125 353.10272216796875 484.31170654296875 441.32525634765625 450.5818786621094 C 424.9017639160156 397.4473571777344 461.9850769042969 463.0001220703125 443.830810546875 452.3155822753906 C 338.7590637207031 475.0933532714844 423.64019775390625 475.5187683105469 396.4942626953125 496.4867248535156 C 321.3392028808594 456.78094482421875 333.30413818359375 460.5687561035156 360.1586608886719 416.2019348144531" stroke-width="0.0" fill="rgb(75, 92, 99)" opacity="1.0"/>
    <path d="M 283.00714111328125 459.8781433105469 C 277.35302734375 496.31781005859375 314.37359619140625 472.1725158691406 300.3603820800781 428.5540771484375 C 255.67843627929688 401.2895812988281 297.2685852050781 484.6341857910156 268.3760070800781 446.4149475097656 C 263.0159606933594 385.27020263671875 258.25506591796875 429.0521545410156 247.66998291015625 464.54180908203125 C 269.5208435058594 457.32916259765625 265.4534606933594 446.3725891113281 283.00714111328125 459.8781433105469" stroke-width="0.0" fill="rgb(159, 116, 78)" opacity="1.0"/>
    <path d="M 297.4294738769531 495.1445617675781 C 307.4211120605469 431.367919921875 292.7886657714844 429.5032043457031 319.4920349121094 431.1925964355469 C 345.24517822265625 428.9485778808594 349.3447570800781 393.2523193359375 360.7613830566406 427.885498046875 C 353.9891662597656 474.6106262207031 351.79608154296875 451.61968994140625 366.61273193359375 470.83197021484375 C 378.1584777832031 490.7579650878906 349.7299499511719 483.54180908203125 297.4294738769531 495.1445617675781" stroke-width="0.0" fill="rgb(105, 129, 149)" opacity="0.0"/>
    <path d="M 368.3603210449219 286.0680847167969 C 415.74163818359375 265.3090515136719 381.9046630859375 274.0225524902344 506.7062072753906 242.0084686279297 C 493.8647766113281 336.61236572265625 500.5118103027344 263.12506103515625 415.115478515625 303.3913879394531 C 386.82568359375 315.9397888183594 442.9482116699219 290.531005859375 279.1344909667969 309.4087219238281 C 262.66986083984375 258.0406188964844 347.5469665527344 334.1242370605469 368.3603210449219 286.0680847167969" stroke-width="0.0" fill="rgb(24, 31, 17)" opacity="1.0"/>
    <path d="M 462.6390075683594 289.3753967285156 C 437.673583984375 299.7198181152344 467.43768310546875 322.8791198730469 428.69598388671875 306.7261657714844 C 427.9724426269531 289.0587158203125 411.1186218261719 308.5206298828125 423.1693115234375 319.6789855957031 C 441.2027282714844 319.6416015625 415.7839660644531 288.38031005859375 441.4278869628906 317.68975830078125 C 451.9654235839844 295.05535888671875 461.8829345703125 350.9795227050781 462.6390075683594 289.3753967285156" stroke-width="0.0" fill="rgb(88, 93, 96)" opacity="1.0"/>
    <path d="M 147.77027893066406 398.8873291015625 C 148.6263427734375 401.13238525390625 149.17747497558594 399.6034851074219 148.4774627685547 398.4806823730469 C 148.1543731689453 396.39385986328125 146.9174346923828 407.62225341796875 147.68785095214844 398.1518859863281 C 148.105712890625 398.23992919921875 148.27386474609375 399.9540100097656 148.0514373779297 400.8091125488281 C 148.07090759277344 397.6877746582031 147.70166015625 397.6191101074219 147.77027893066406 398.8873291015625" stroke-width="0.0" fill="rgb(134, 92, 49)" opacity="1.0"/>
    <path d="M 147.3738555908203 398.4295959472656 C 148.8422088623047 397.5715637207031 145.91387939453125 398.75726318359375 148.8592529296875 399.8555603027344 C 146.9952392578125 400.51824951171875 147.36000061035156 400.5830383300781 148.49456787109375 400.6991882324219 C 146.95614624023438 400.7554016113281 148.63442993164062 401.21502685546875 147.92640686035156 398.2148742675781 C 193.17820739746094 397.6705322265625 145.57467651367188 398.53192138671875 147.3738555908203 398.4295959472656" stroke-width="0.0" fill="rgb(77, 41, 71)" opacity="1.0"/>
    <path d="M 50.91446304321289 411.2412109375 C 202.34457397460938 344.67425537109375 84.85967254638672 466.2301940917969 139.42193603515625 451.7518310546875 C 144.01480102539062 389.9229736328125 133.67196655273438 467.779296875 121.58312225341797 379.3531799316406 C 83.88800811767578 359.98516845703125 62.52154541015625 398.1991882324219 52.272911071777344 379.7853698730469 C 43.45245361328125 380.24029541015625 38.23788070678711 379.5514831542969 50.91446304321289 411.2412109375" stroke-width="0.0" fill="rgb(24, 26, 26)" opacity="1.0"/>
    <path d="M 173.9129180908203 437.63299560546875 C 201.28334045410156 432.1876220703125 145.3458709716797 415.49188232421875 194.0764923095703 408.0111999511719 C 187.4674072265625 429.85211181640625 218.38815307617188 391.8146667480469 203.65406799316406 413.118408203125 C 141.21304321289062 456.8709411621094 228.4557342529297 422.5906982421875 170.82228088378906 456.3533935546875 C 166.3997802734375 457.9826354980469 169.05258178710938 442.41015625 173.9129180908203 437.63299560546875" stroke-width="0.0" fill="rgb(112, 124, 129)" opacity="1.0"/>
    <path d="M 119.27555847167969 337.98736572265625 C 125.00362396240234 351.5528259277344 124.57792663574219 371.10638427734375 142.5473175048828 299.5991516113281 C 53.57698059082031 337.5294494628906 170.79331970214844 321.75189208984375 90.04271697998047 351.7940673828125 C 42.79246520996094 346.36737060546875 32.654747009277344 358.3771667480469 48.94533920288086 356.95855712890625 C 131.11135864257812 365.3195495605469 52.42399597167969 368.3812255859375 119.27555847167969 337.98736572265625" stroke-width="0.0" fill="rgb(80, 81, 85)" opacity="1.0"/>
    <path d="M 58.81989669799805 497.0821838378906 C 74.6722412109375 475.2939453125 93.3661880493164 507.39276123046875 90.75823211669922 471.27197265625 C 154.097412109375 504.28680419921875 68.49327850341797 449.50982666015625 132.65745544433594 440.3374328613281 C 133.86557006835938 466.943359375 118.43852996826172 512.7241821289062 111.31961059570312 488.7307434082031 C 88.05879211425781 452.769775390625 106.50257110595703 503.29754638671875 58.81989669799805 497.0821838378906" stroke-width="0.0" fill="rgb(139, 124, 99)" opacity="1.0"/>
    <path d="M 115.42269897460938 413.15032958984375 C 146.4723663330078 502.3348083496094 111.81083679199219 491.109619140625 189.81744384765625 450.74652099609375 C 223.0897216796875 513.06787109375 220.92897033691406 514.7108764648438 137.9943389892578 512.4891357421875 C 110.010986328125 345.0616149902344 131.46299743652344 504.5474548339844 1.556887149810791 503.1344299316406 C 105.65853118896484 355.07672119140625 6.246589183807373 516.8499755859375 115.42269897460938 413.15032958984375" stroke-width="0.0" fill="rgb(20, 23, 16)" opacity="1.0"/>
    <path d="M 78.84303283691406 371.3207702636719 C 46.569793701171875 391.13909912109375 66.64055633544922 367.786376953125 16.808664321899414 389.7843322753906 C -4.8112592697143555 397.200927734375 -3.5158743858337402 361.2582092285156 0.8521705269813538 419.1927490234375 C 27.2246150970459 379.71826171875 13.271007537841797 438.7424011230469 44.8626823425293 400.6442565917969 C 50.5461311340332 374.06744384765625 85.73868560791016 384.7021789550781 78.84303283691406 371.3207702636719" stroke-width="0.0" fill="rgb(78, 99, 118)" opacity="1.0"/>
    <path d="M 117.12743377685547 128.53842163085938 C 115.99137878417969 131.79344177246094 114.83407592773438 130.78395080566406 115.4009017944336 130.87149047851562 C 116.42681884765625 132.63845825195312 115.345703125 123.57179260253906 116.02867126464844 130.26275634765625 C 115.53318786621094 102.21228790283203 115.65286254882812 132.62950134277344 115.49488830566406 130.06243896484375 C 115.04586791992188 127.60252380371094 115.54573059082031 127.3573226928711 117.12743377685547 128.53842163085938" stroke-width="0.0" fill="rgb(136, 122, 140)" opacity="1.0"/>
    <path d="M 115.31787109375 130.35777282714844 C 116.14302825927734 129.091552734375 116.21288299560547 129.2647705078125 115.60733795166016 130.24484252929688 C 116.35791778564453 129.3781280517578 115.9049072265625 129.80482482910156 115.876708984375 130.9193115234375 C 115.90502166748047 130.10821533203125 115.41443634033203 129.673828125 116.42559051513672 129.51832580566406 C 114.72225952148438 130.6889190673828 116.92031860351562 130.6962432861328 115.31787109375 130.35777282714844" stroke-width="0.0" fill="rgb(154, 128, 154)" opacity="1.0"/>
    <path d="M 45.15957260131836 125.4569091796875 C 52.67271423339844 166.0634307861328 70.97835540771484 108.05552673339844 82.54777526855469 131.8876190185547 C 114.2988052368164 115.96480560302734 54.59005355834961 130.46937561035156 69.60030364990234 99.89423370361328 C 38.90811538696289 119.0633316040039 54.12659454345703 88.07698059082031 0.7611855268478394 85.85659790039062 C -4.998417377471924 126.44194793701172 18.264400482177734 91.07150268554688 45.15957260131836 125.4569091796875" stroke-width="0.0" fill="rgb(139, 138, 42)" opacity="1.0"/>
    <path d="M 94.18663024902344 123.06986999511719 C 89.46516418457031 115.30927276611328 90.3255386352539 108.69681549072266 105.48605346679688 126.19542694091797 C 110.74420928955078 148.7930908203125 124.16407775878906 135.0880889892578 132.11106872558594 144.47715759277344 C 108.62286376953125 163.78782653808594 120.00358581542969 127.15550231933594 98.15239715576172 135.4974822998047 C 87.74517822265625 131.86325073242188 92.77335357666016 131.30332946777344 94.18663024902344 123.06986999511719" stroke-width="0.0" fill="rgb(156, 153, 77)" opacity="1.0"/>
    <path d="M 13.886955261230469 33.85234832763672 C 17.675621032714844 33.3560676574707 13.180876731872559 32.80546951293945 14.62384033203125 33.712528228759766 C 13.962124824523926 30.9028263092041 18.944366455078125 28.83407211303711 5.964498996734619 30.886219024658203 C -3.0204269886016846 30.10873031616211 -2.5108749866485596 26.867380142211914 -2.239372730255127 36.36436462402344 C 14.205205917358398 45.47991943359375 15.368857383728027 36.80111312866211 13.886955261230469 33.85234832763672" stroke-width="0.0" fill="rgb(159, 173, 141)" opacity="1.0"/>
    <path d="M 27.442752838134766 121.4284896850586 C 16.976802825927734 72.01759338378906 34.807884216308594 112.32830810546875 32.956878662109375 117.93407440185547 C 53.785552978515625 120.24607849121094 48.75449752807617 120.03167724609375 48.49542236328125 117.76951599121094 C 47.92797088623047 120.37083435058594 49.358699798583984 119.34101104736328 44.55279541015625 127.1235122680664 C 45.740970611572266 128.59133911132812 39.56008529663086 128.97323608398438 27.442752838134766 121.4284896850586" stroke-width="0.0" fill="rgb(172, 161, 71)" opacity="1.0"/>
    <path d="M -1.2980839014053345 2.765393018722534 C 92.69880676269531 10.84190559387207 36.458255767822266 1.2846590280532837 63.57828903198242 -0.800268828868866 C 83.95762634277344 37.57022476196289 57.560359954833984 31.459033966064453 54.68634796142578 6.514750003814697 C -3.643328905105591 -0.20139315724372864 42.01117706298828 38.105159759521484 0.45806559920310974 28.194154739379883 C 0.1011006087064743 5.409481525421143 2.6821649074554443 17.145919799804688 -1.2980839014053345 2.765393018722534" stroke-width="0.0" fill="rgb(99, 97, 36)" opacity="1.0"/>
    <path d="M 15.868034362792969 34.500457763671875 C 0.48980584740638733 28.252851486206055 -0.16710248589515686 29.575563430786133 10.08146858215332 46.212493896484375 C 1.3670063018798828 47.0844841003418 -1.2230499982833862 39.14643096923828 -0.8792963027954102 56.15738296508789 C 20.452266693115234 57.210872650146484 17.880252838134766 56.95624923706055 6.551918029785156 40.531219482421875 C 1.2468823194503784 36.10955810546875 13.080439567565918 39.40729904174805 15.868034362792969 34.500457763671875" stroke-width="0.0" fill="rgb(171, 183, 153)" opacity="1.0"/>
    <path d="M 151.24197387695312 225.56211853027344 C 151.40597534179688 226.8883514404297 151.46287536621094 226.47097778320312 151.04205322265625 225.56851196289062 C 149.7631072998047 223.3452606201172 148.55540466308594 282.2108459472656 150.6237335205078 224.0989532470703 C 151.03793334960938 291.9771423339844 150.64157104492188 222.16619873046875 149.897216796875 225.43438720703125 C 150.02032470703125 227.75772094726562 149.62484741210938 226.27456665039062 151.24197387695312 225.56211853027344" stroke-width="0.0" fill="rgb(136, 210, 82)" opacity="1.0"/>
    <path d="M 149.9435272216797 224.99392700195312 C 149.5755157470703 226.3601837158203 150.89393615722656 227.03338623046875 150.94459533691406 224.6630859375 C 149.8726348876953 224.40057373046875 150.02804565429688 224.91778564453125 151.2206268310547 226.58987426757812 C 151.58010864257812 225.61676025390625 150.59193420410156 225.3678436279297 150.3312530517578 224.99148559570312 C 250.94967651367188 225.35462951660156 147.7578582763672 224.88880920410156 149.9435272216797 224.99392700195312" stroke-width="0.0" fill="rgb(115, 64, 103)" opacity="1.0"/>
    <path d="M 98.04711151123047 321.76055908203125 C 109.0164566040039 325.71771240234375 101.52142333984375 302.2207336425781 107.23421478271484 286.8153076171875 C 111.56820678710938 282.3070068359375 114.5950698852539 276.9246520996094 104.10543060302734 275.5893249511719 C 107.96475982666016 290.2131042480469 93.51180267333984 280.39007568359375 98.5303726196289 289.87774658203125 C 98.39817810058594 301.9679260253906 92.27996826171875 307.8360900878906 98.04711151123047 321.76055908203125" stroke-width="0.0" fill="rgb(65, 61, 42)" opacity="1.0"/>
    <path d="M 203.8417510986328 296.2384033203125 C 227.112548828125 295.2977600097656 212.87474060058594 306.2073669433594 227.39871215820312 292.0205383300781 C 241.8961181640625 268.43316650390625 251.66964721679688 283.5691223144531 237.81504821777344 287.3440856933594 C 216.99888610839844 295.6322937011719 221.9333953857422 302.9803161621094 216.2972412109375 305.7088317871094 C 207.892578125 306.1639709472656 200.92196655273438 298.1293029785156 203.8417510986328 296.2384033203125" stroke-width="0.0" fill="rgb(134, 119, 76)" opacity="1.0"/>
    <path d="M 117.9910659790039 252.6125946044922 C 120.66563415527344 245.82872009277344 140.91546630859375 247.1689910888672 133.5421142578125 242.99752807617188 C 113.10823822021484 235.9729766845703 122.2496109008789 246.5543212890625 116.47021484375 247.00482177734375 C 102.86180877685547 243.96299743652344 100.06434631347656 255.0442352294922 99.29960632324219 254.55984497070312 C 105.93403625488281 255.8838653564453 110.73043823242188 254.8346710205078 117.9910659790039 252.6125946044922" stroke-width="0.0" fill="rgb(132, 124, 46)" opacity="1.0"/>
    <path d="M 169.92996215820312 309.0185241699219 C 167.26608276367188 299.7611083984375 168.86416625976562 299.6264953613281 179.10206604003906 301.3175048828125 C 183.77857971191406 297.7259826660156 184.95379638671875 290.877685546875 187.1398468017578 299.2744445800781 C 187.08169555664062 301.21856689453125 190.39979553222656 316.55377197265625 183.75059509277344 312.4656982421875 C 175.37368774414062 300.6500244140625 177.49169921875 313.8600769042969 169.92996215820312 309.0185241699219" stroke-width="0.0" fill="rgb(176, 154, 126)" opacity="1.0"/>
    <path d="M 202.64596557617188 264.04296875 C 242.33680725097656 293.2083435058594 234.84539794921875 305.74053955078125 248.89181518554688 279.8044128417969 C 278.3446960449219 293.4294738769531 250.44754028320312 313.9315490722656 224.2854461669922 281.0824890136719 C 163.6217803955078 270.06890869140625 175.434814453125 313.9755859375 159.46893310546875 297.2587890625 C 187.42727661132812 259.2849426269531 81.44819641113281 265.6517028808594 202.64596557617188 264.04296875" stroke-width="0.0" fill="rgb(46, 52, 20)" opacity="1.0"/>
    <path d="M 80.30711364746094 221.77821350097656 C 53.23564147949219 232.97503662109375 105.14498138427734 225.41091918945312 21.823301315307617 241.61155700683594 C 17.892398834228516 221.9801788330078 -3.7923240661621094 230.71688842773438 2.2772552967071533 238.7463836669922 C 27.843530654907227 247.5117950439453 -0.04289877414703369 242.83946228027344 60.03532028198242 234.79022216796875 C 80.3168716430664 224.48330688476562 87.72882843017578 239.00811767578125 80.30711364746094 221.77821350097656" stroke-width="0.0" fill="rgb(119, 112, 57)" opacity="1.0"/>
    <path d="M 147.4399871826172 400.5290832519531 C 149.24710083007812 399.2568664550781 149.07855224609375 400.1445007324219 147.60667419433594 400.37103271484375 C 148.37681579589844 396.6004333496094 147.51626586914062 347.2277526855469 145.26124572753906 396.426513671875 C 147.30648803710938 355.4861755371094 147.54608154296875 400.59564208984375 148.25035095214844 400.508056640625 C 147.6833953857422 400.0088806152344 147.31019592285156 401.1031188964844 147.4399871826172 400.5290832519531" stroke-width="0.0" fill="rgb(133, 88, 54)" opacity="1.0"/>
    <path d="M 147.4417266845703 399.6665954589844 C 147.73936462402344 398.6927185058594 146.6846466064453 399.0224609375 148.325927734375 401.39080810546875 C 149.2250213623047 397.2814636230469 148.92172241210938 397.95098876953125 149.5658416748047 397.7681884765625 C 149.6965789794922 396.7083435058594 150.14366149902344 396.5413818359375 148.1329345703125 399.4871520996094 C 203.22186279296875 397.91632080078125 147.04092407226562 399.9770812988281 147.4417266845703 399.6665954589844" stroke-width="0.0" fill="rgb(84, 43, 77)" opacity="1.0"/>
  </g>
</svg>
